<svg width="32" height="32" viewBox="0 0 32 32" fill="none" xmlns="http://www.w3.org/2000/svg">
<path d="M3.33325 16C3.33325 10.0289 3.33325 7.0433 5.18824 5.1883C7.04324 3.33331 10.0288 3.33331 15.9999 3.33331C21.971 3.33331 24.9566 3.33331 26.8117 5.1883C28.6666 7.0433 28.6666 10.0289 28.6666 16C28.6666 21.971 28.6666 24.9566 26.8117 26.8117C24.9566 28.6666 21.971 28.6666 15.9999 28.6666C10.0288 28.6666 7.04324 28.6666 5.18824 26.8117C3.33325 24.9566 3.33325 21.971 3.33325 16Z" stroke="#141B34" stroke-width="1.5" stroke-linejoin="round"/>
<path d="M16 21.3334L14.8452 17.6M14.8452 17.6L13.8796 14.4786C13.0935 11.9373 12.7004 10.6667 12 10.6667C11.2996 10.6667 10.9065 11.9373 10.1204 14.4786L9.15485 17.6M14.8452 17.6H9.15485M8 21.3334L9.15485 17.6" stroke="#141B34" stroke-width="1.5" stroke-linecap="round" stroke-linejoin="round"/>
<path d="M18.6667 17.1594V18.6666C18.6667 20.1394 19.8606 21.3333 21.3334 21.3333C22.3239 21.3333 23.1883 20.7932 23.6482 19.9914M18.6667 17.1594V16C18.6667 14.5272 19.8606 13.3333 21.3334 13.3333C22.8062 13.3333 24.0001 14.5272 24.0001 16V17.1594H18.6667Z" stroke="#141B34" stroke-width="1.5" stroke-linecap="round" stroke-linejoin="round"/>
</svg>
