<svg width="21" height="20" viewBox="0 0 21 20" fill="none" xmlns="http://www.w3.org/2000/svg">
<path d="M10.0833 18.3333C6.74422 18.3333 5.07466 18.3333 4.03733 17.1129C3 15.8926 3 13.9283 3 10C3 6.07164 3 4.10745 4.03733 2.88706C5.07466 1.66667 6.74422 1.66667 10.0833 1.66667C13.4224 1.66667 15.092 1.66667 16.1293 2.88706C16.9643 3.86944 17.1273 5.33379 17.159 7.91667" stroke="#606E80" stroke-width="1.5" stroke-linecap="round" stroke-linejoin="round"/>
<path d="M7.16675 6.66667H13.0001M7.16675 10.8333H9.66675" stroke="#606E80" stroke-width="1.5" stroke-linecap="round" stroke-linejoin="round"/>
<path d="M16.8411 15.0878C17.5435 14.5765 18.0001 13.7478 18.0001 12.8125C18.0001 11.2592 16.7409 10 15.1876 10H14.9792C13.4259 10 12.1667 11.2592 12.1667 12.8125C12.1667 13.7478 12.6233 14.5765 13.3257 15.0878M16.8411 15.0878C16.377 15.4257 15.8056 15.625 15.1876 15.625H14.9792C14.3612 15.625 13.7898 15.4257 13.3257 15.0878M16.8411 15.0878L17.3267 16.617C17.512 17.2002 17.6047 17.4919 17.5793 17.6735C17.5266 18.0514 17.2183 18.332 16.8544 18.3333C16.6796 18.334 16.4176 18.1965 15.8937 17.9216C15.669 17.8037 15.5567 17.7447 15.4417 17.71C15.2076 17.6394 14.9592 17.6394 14.7251 17.71C14.6102 17.7447 14.4978 17.8037 14.2732 17.9216C13.7492 18.1965 13.4872 18.334 13.3124 18.3333C12.9485 18.332 12.6402 18.0514 12.5875 17.6735C12.5622 17.4919 12.6548 17.2002 12.8401 16.617L13.3257 15.0878" stroke="#606E80" stroke-width="1.5"/>
</svg>
