<svg width="25" height="24" viewBox="0 0 25 24" fill="none" xmlns="http://www.w3.org/2000/svg">
<path fill-rule="evenodd" clip-rule="evenodd" d="M23.8525 12.2614C23.8525 11.4459 23.7793 10.6618 23.6434 9.90909H12.8125V14.3575H19.0016C18.735 15.795 17.9248 17.013 16.7068 17.8284V20.7139H20.4234C22.598 18.7118 23.8525 15.7636 23.8525 12.2614Z" fill="#4285F4"/>
<path fill-rule="evenodd" clip-rule="evenodd" d="M12.812 23.4998C15.917 23.4998 18.5202 22.4701 20.4229 20.7137L16.7063 17.8283C15.6765 18.5183 14.3592 18.926 12.812 18.926C9.81675 18.926 7.28152 16.903 6.3772 14.1848H2.53516V17.1644C4.42743 20.9228 8.31652 23.4998 12.812 23.4998Z" fill="#34A853"/>
<path fill-rule="evenodd" clip-rule="evenodd" d="M6.37773 14.1851C6.14773 13.4951 6.01705 12.758 6.01705 12.0001C6.01705 11.2421 6.14773 10.5051 6.37773 9.81506V6.83551H2.53568C1.75682 8.38801 1.3125 10.1444 1.3125 12.0001C1.3125 13.8557 1.75682 15.6121 2.53568 17.1646L6.37773 14.1851Z" fill="#FBBC05"/>
<path fill-rule="evenodd" clip-rule="evenodd" d="M12.812 5.07386C14.5004 5.07386 16.0163 5.65409 17.2081 6.79364L20.5065 3.49523C18.5149 1.63955 15.9117 0.5 12.812 0.5C8.31652 0.5 4.42743 3.07705 2.53516 6.83545L6.3772 9.815C7.28152 7.09682 9.81675 5.07386 12.812 5.07386Z" fill="#EA4335"/>
</svg>
