<svg width="21" height="20" viewBox="0 0 21 20" fill="none" xmlns="http://www.w3.org/2000/svg">
<path d="M13.0003 14.1667C12.334 14.6853 11.4588 15 10.5003 15C9.54168 15 8.66652 14.6853 8.00024 14.1667" stroke="#FEFEFF" stroke-width="1.5" stroke-linecap="round"/>
<path d="M2.45957 11.0112C2.16539 9.09683 2.0183 8.13969 2.38022 7.29115C2.74214 6.4426 3.54511 5.86202 5.15103 4.70088L6.35091 3.83333C8.34866 2.38889 9.34752 1.66667 10.5001 1.66667C11.6526 1.66667 12.6515 2.38889 14.6493 3.83333L15.8491 4.70088C17.4551 5.86202 18.258 6.4426 18.6199 7.29115C18.9818 8.13969 18.8348 9.09683 18.5406 11.0112L18.2898 12.6437C17.8727 15.3574 17.6642 16.7143 16.6909 17.5238C15.7177 18.3333 14.2948 18.3333 11.4491 18.3333H9.5511C6.70536 18.3333 5.28251 18.3333 4.30925 17.5238C3.33599 16.7143 3.12747 15.3574 2.71044 12.6437L2.45957 11.0112Z" stroke="#FEFEFF" stroke-width="1.5" stroke-linejoin="round"/>
</svg>
