<svg width="192" height="181" viewBox="0 0 192 181" fill="none" xmlns="http://www.w3.org/2000/svg">
<path d="M9.17667 83.3831C10.2386 83.3831 11.0994 82.5223 11.0994 81.4604C11.0994 80.3984 10.2386 79.5376 9.17667 79.5376C8.11476 79.5376 7.25391 80.3984 7.25391 81.4604C7.25391 82.5223 8.11476 83.3831 9.17667 83.3831Z" stroke="#121213" stroke-width="0.899999"/>
<path d="M12.9452 81.656C16.8235 81.2568 22.9089 81.729 23.6281 84.7289C24.3474 87.7289 21.6008 88.826 20.1377 88.9997C14.5671 89.885 7.18066 89.4684 7.18066 84.7289" stroke="#121213" stroke-width="0.899999" stroke-linecap="round"/>
<path d="M11.5443 86.1926C11.7894 86.1926 11.988 85.9939 11.988 85.7489C11.988 85.5038 11.7894 85.3052 11.5443 85.3052C11.2992 85.3052 11.1006 85.5038 11.1006 85.7489C11.1006 85.9939 11.2992 86.1926 11.5443 86.1926Z" stroke="#121213" stroke-width="0.899999"/>
<path d="M15.8322 85.7489C15.8322 85.9644 15.6314 86.1926 15.3145 86.1926C14.9977 86.1926 14.7969 85.9644 14.7969 85.7489C14.7969 85.5334 14.9977 85.3052 15.3145 85.3052C15.6314 85.3052 15.8322 85.5334 15.8322 85.7489Z" stroke="#121213" stroke-width="0.899999"/>
<path d="M19.0863 86.1926C19.3314 86.1926 19.53 85.9939 19.53 85.7489C19.53 85.5038 19.3314 85.3052 19.0863 85.3052C18.8412 85.3052 18.6426 85.5038 18.6426 85.7489C18.6426 85.9939 18.8412 86.1926 19.0863 86.1926Z" stroke="#121213" stroke-width="0.899999"/>
<path d="M155.085 29.2489C156.066 29.2489 156.86 28.4543 156.86 27.4741C156.86 26.4939 156.066 25.6992 155.085 25.6992C154.105 25.6992 153.311 26.4939 153.311 27.4741C153.311 28.4543 154.105 29.2489 155.085 29.2489Z" stroke="#121213" stroke-width="0.899999"/>
<path d="M158.572 25.9233C159.873 25.9233 163.589 25.9233 165.337 25.9233C166.753 25.9233 167.435 26.2366 167.435 28.4291C167.435 30.5594 167.417 33.3189 167.435 34.4326C167.447 35.2156 167.057 36.0822 165.757 36.2075C164.456 36.3327 159.236 36.2597 156.789 36.2075C155.88 36.2075 154.271 35.6922 154.271 33.5972V31.2481" stroke="#121213" stroke-width="0.899999" stroke-linecap="round"/>
<path d="M157.674 29.6191L160.928 31.8377" stroke="#121213" stroke-width="0.899999" stroke-linecap="round"/>
<path d="M160.928 31.8382L166.844 26.3657" stroke="#121213" stroke-width="0.899999" stroke-linecap="round"/>
<path d="M162.427 30.5063L164.043 32.1333L165.66 33.7603" stroke="#121213" stroke-width="0.899999" stroke-linecap="round"/>
<path d="M156.49 33.7603L158.876 30.5063" stroke="#121213" stroke-width="0.899999" stroke-linecap="round"/>
<path d="M168.092 140.176C167.601 140.669 167.177 141.093 166.885 141.385C166.124 142.147 165.325 141.703 165.02 141.385L160.165 136.707C159.448 136.041 158.843 135.383 156.133 132.799C155.856 132.521 155.417 131.812 155.877 131.196C156.338 130.581 158.928 127.352 160.165 125.814C160.541 125.27 161.356 124.623 162.396 125.591C163.292 126.424 166.364 129.307 168.988 131.5" stroke="#121213" stroke-width="0.899999" stroke-linecap="round"/>
<path d="M160.114 125.979C160.267 128.785 161.297 133.302 166.622 135.002" stroke="#121213" stroke-width="0.899999" stroke-linecap="round"/>
<path d="M173.619 135.22C173.375 134.599 171.501 133.877 170.792 135.22C170.062 136.605 170.621 137.772 171.095 138C171.702 138.293 172.592 138.445 173.533 136.764" stroke="#121213" stroke-width="0.899999" stroke-linecap="round"/>
<path d="M173.774 134.356C173.72 134.68 173.663 134.817 173.619 135.22C173.561 135.745 173.524 136.296 173.533 136.764C173.551 137.586 173.714 138.153 174.175 137.879C175.101 137.33 175.601 136.88 175.734 136.421C175.956 135.649 175.957 134.17 174.709 133.204C173.203 132.037 171.505 132.069 170.17 133.204C168.844 134.33 168.481 136.134 168.554 137.07C168.633 138.094 169.397 140.292 171.89 140.327C174.382 140.361 175.733 139.017 175.94 138.388" stroke="#121213" stroke-width="0.899999" stroke-linecap="round"/>
<path d="M42.3823 116.745C41.8505 114.693 40.0848 110.907 37.277 112.186C34.469 113.466 36.1069 115.759 37.277 116.745C38.0643 117.279 39.7569 117.849 40.2285 115.865C40.7 113.882 38.7129 113.066 38.1544 113.946C37.8599 114.293 37.5273 115.162 38.5533 115.865" stroke="#121213" stroke-width="0.899999" stroke-linecap="round"/>
<path d="M54.9125 17.1899C54.7821 16.4554 55.5506 15.8904 56.2128 16.2337L57.5373 16.9204C58.0633 17.1931 58.6897 17.1895 59.2125 16.9108L60.5291 16.209C61.1874 15.8581 61.9622 16.4143 61.8404 17.1503L61.5966 18.6221C61.4998 19.2066 61.6968 19.8013 62.1234 20.2124L63.1976 21.2476C63.7348 21.7652 63.4452 22.6741 62.7077 22.7856L61.2325 23.0085C60.6467 23.0971 60.142 23.4682 59.8829 24.001L59.2303 25.3426C58.904 26.0134 57.9501 26.0188 57.6162 25.3518L56.9483 24.0178C56.683 23.488 56.1741 23.1227 55.5873 23.0409L54.1097 22.8348C53.3709 22.7317 53.071 21.8263 53.6022 21.3025L54.6645 20.2551C55.0864 19.8391 55.2766 19.2422 55.1731 18.6589L54.9125 17.1899Z" stroke="#121213" stroke-width="0.899999"/>
<path d="M100.582 83.3701V95.942" stroke="#121213" stroke-width="0.899999" stroke-linecap="round"/>
<path d="M110.049 84.8491V96.8294" stroke="#121213" stroke-width="0.899999" stroke-linecap="round"/>
<path d="M87.9087 139.292C84.783 139.682 77.4658 141.117 75.863 144.036C75.3821 144.912 74.8243 147.043 76.4399 148.56C78.0557 150.078 81.0083 149.679 82.2825 149.29L89.712 146.298" stroke="#121213" stroke-width="0.899999" stroke-linecap="round"/>
<path d="M130.504 117.265C124.671 117.452 98.9121 129.923 86.7614 136.135C85.7268 142.98 90.0931 147.895 92.4056 149.497C104.517 145.981 129.375 138.854 131.915 138.479C134.455 138.104 136.971 136.292 137.911 135.432C144.496 127.743 139.636 121.211 136.383 118.906C134.067 117.265 132.068 117.214 130.504 117.265Z" fill="#121213"/>
<path d="M75.8718 115.52C80.0041 115.796 98.0308 122.782 106.572 126.444L87.0383 136.205C78.2963 138.769 72.9259 137.924 71.2859 137.372C61.8189 132.811 65.528 121.558 69.2894 117.39C71.7136 115.327 74.3912 115.422 75.8718 115.52Z" fill="#121213"/>
<path d="M121.864 140.622C124.447 141.863 125.844 143.489 126.552 144.823C128.069 148.296 125.344 150.383 122.234 149.401C120.515 148.859 120.11 148.496 119.199 147.741C118.737 147.357 116.58 145.353 114.116 142.985" stroke="#121213" stroke-width="0.899999" stroke-linecap="round"/>
<path d="M72.4423 84.5034L74.0952 114.54C74.2264 116.926 76.1992 118.793 78.5884 118.793H128.03C130.515 118.793 132.53 116.778 132.53 114.293V83.5674C132.53 81.0584 130.478 79.034 127.969 79.0678L76.8748 79.7566C74.3166 79.7911 72.3017 81.9488 72.4423 84.5034Z" fill="#121213"/>
<rect x="73.959" y="119.311" width="58.5704" height="2.8102" rx="1.4051" fill="#121213"/>
<path d="M110.196 63.4029C115.348 63.3289 126.688 67.2484 131.199 79.5984" stroke="#121213" stroke-width="0.899999" stroke-linecap="round"/>
<path d="M98.8814 63.3301C87.123 65.6226 81.5026 70.6514 77.0654 80.3392" stroke="#121213" stroke-width="0.899999" stroke-linecap="round"/>
<path d="M138.224 75.0271L141.108 70.2202" stroke="#121213" stroke-width="0.899999" stroke-linecap="round"/>
<path d="M141.108 76.3574L145.028 73.1035" stroke="#121213" stroke-width="0.899999" stroke-linecap="round"/>
<path d="M141.7 78.5767C142.464 78.8725 144.2 79.1535 145.028 77.9111" stroke="#121213" stroke-width="0.899999" stroke-linecap="round"/>
<path d="M66.0465 74.1275L61.6094 69.5425" stroke="#121213" stroke-width="0.899999" stroke-linecap="round"/>
<path d="M70.5568 73.3864L67.8945 66.5088" stroke="#121213" stroke-width="0.899999" stroke-linecap="round"/>
<path d="M64.9372 76.7152L61.6094 75.458" stroke="#121213" stroke-width="0.899999" stroke-linecap="round"/>
<path d="M134.157 87.895C136.893 92.1843 139.999 97.287 134.157 106.888" stroke="#121213" stroke-width="0.899999" stroke-linecap="round"/>
<path d="M110.27 63.7732C110.935 61.8505 110.329 60.5566 109.737 60.3101C106.188 63.564 100.804 62.3561 98.807 60.384C98.0971 61.0348 98.5112 62.9597 98.807 63.5514C102.653 67.811 108.125 65.4248 110.27 63.7732Z" fill="#121213"/>
<path d="M94.5186 75.6052L94.8168 75.1475C96.4911 72.5775 99.7498 71.5515 102.595 72.6985V72.6985C105.149 73.7285 108.075 73.014 109.868 70.923L112.193 68.21" stroke="#121213" stroke-width="0.899999" stroke-linecap="round"/>
<path d="M71.3714 90.6167C70.2621 93.2297 68.9458 99.565 72.5546 104.002" stroke="#121213" stroke-width="0.899999" stroke-linecap="round"/>
<path d="M120.467 33.5418C118.84 39.3841 118.026 39.9017 115.66 42.4901C115.66 39.9321 115.22 35.6384 115.22 33.8506C107.472 33.8506 100.932 30.6874 98.6313 29.1059C98.7137 34.4694 93.6854 37.9764 93.6854 37.9764C93.6854 37.9764 94.4067 40.1425 94.8188 44.9903C95.1486 48.8686 94.2006 48.1191 93.6854 47.2595C92.2017 42.4736 89.7698 43.7526 88.7394 44.9903C76.0954 24.4457 95.54 20.476 99.2494 20.8542C102.052 18.4612 105.961 16.5859 108.708 16.3109C118.618 15.3189 123.105 24.0688 120.467 33.5418Z" fill="#121213"/>
<path d="M93.8594 50.9166C95.1905 59.0433 104.125 64.8869 110.573 58.3038C117.02 51.7207 115.73 39.6705 115.041 34.0474" stroke="#121213" stroke-width="0.899999" stroke-linecap="round"/>
<path d="M88.5938 44.4873C87.7804 46.484 88.5436 50.9086 93.8593 50.9086" stroke="#121213" stroke-width="0.899999" stroke-linecap="round"/>
<path d="M90.9385 45.5845C90.8209 46.0118 90.915 47.0241 92.2325 47.6551" stroke="#121213" stroke-width="0.899999" stroke-linecap="round"/>
<path d="M114.861 49.8742C116.596 49.1509 117.819 46.4724 117.349 42.1831" stroke="#121213" stroke-width="0.899999" stroke-linecap="round"/>
<path d="M105.1 54.7546C106.801 55.1983 106.693 53.9772 107.984 52.9058" stroke="#121213" stroke-width="0.899999" stroke-linecap="round"/>
<ellipse cx="110.178" cy="44.4218" rx="1.10929" ry="1.10929" fill="#121213"/>
<ellipse cx="100.416" cy="44.5702" rx="1.10929" ry="1.10929" fill="#121213"/>
<path d="M98 42.0347C98.2335 41.3474 99.2407 40.0759 101.402 40.4882" stroke="#121213" stroke-width="0.899999" stroke-linecap="round"/>
<path d="M108.354 40.7025C108.869 40.256 110.271 39.631 111.755 40.7025" stroke="#121213" stroke-width="0.899999" stroke-linecap="round"/>
<path d="M104.775 43.8096C104.603 45.27 104.486 48.2316 105.396 48.3946" stroke="#121213" stroke-width="0.899999" stroke-linecap="round"/>
<path d="M147.395 110.893C167.14 116.365 202.607 122.651 186.515 104.015C181.437 99.0113 173.943 93.1444 161.889 87.9678" stroke="#121213" stroke-width="0.899999" stroke-linecap="round"/>
<path d="M168.766 72.6589C181.042 64.7953 200.817 48.5504 181.708 46.4797C162.599 44.4091 145.151 51.5825 138.815 55.428" stroke="#121213" stroke-width="0.899999" stroke-linecap="round"/>
<path d="M121.215 61.1668C129.349 43.64 142.513 7.31455 130.089 2.22661C114.559 -4.1333 94.4438 14.2069 78.0264 57.9868" stroke="#121213" stroke-width="0.899999" stroke-linecap="round"/>
<path d="M59.9351 46.0692C41.7428 36.1102 4.60386 20.7922 1.58659 39.1916C-1.43067 57.591 35.4322 72.9385 54.2408 78.3124" stroke="#121213" stroke-width="0.899999" stroke-linecap="round"/>
<path d="M59.0697 87.9678C32.5208 101.501 -0.744641 120.218 17.6814 129.973C25.2244 133.966 44.5261 131.526 53.4004 127.902" stroke="#121213" stroke-width="0.899999" stroke-linecap="round"/>
<ellipse cx="102.506" cy="176.563" rx="36.6065" ry="4.43715" fill="#121213"/>
</svg>
