<svg width="39" height="29" viewBox="0 0 39 29" fill="none" xmlns="http://www.w3.org/2000/svg">
<path d="M21.7792 2.4731C21.9388 3.74954 22.0319 5.23872 22.0585 6.94064C22.0851 8.61597 22.0585 10.3179 21.9787 12.0464C21.9255 13.7483 21.8058 15.3705 21.6197 16.9128C21.4335 18.4286 21.2075 19.6518 20.9416 20.5826C20.7554 21.141 20.5294 21.7261 20.2635 22.3377C20.0241 22.9227 19.7582 23.4546 19.4657 23.9332C19.0402 24.6512 18.5217 25.2895 17.91 25.8479C17.2984 26.3797 16.6203 26.8451 15.8757 27.244C15.1577 27.6163 14.3865 27.9088 13.5622 28.1216C12.7644 28.3343 11.9666 28.454 11.1688 28.4806C9.75944 28.5337 8.41652 28.3343 7.14008 27.8822C5.89024 27.4036 4.73346 26.659 3.66976 25.6485C2.87199 24.8773 2.23377 24.0529 1.7551 23.1754C1.27644 22.2978 0.904144 21.3804 0.63822 20.423C0.372295 19.4391 0.199444 18.4286 0.119666 17.3915C0.0664811 16.3544 0.0398887 15.2907 0.0398887 14.2004C0.0398887 13.6951 0.0265924 13.0702 0 12.3256C0 11.5544 0 10.77 0 9.97218C0 9.14782 0 8.35004 0 7.57886C0 6.80768 0.0132962 6.15616 0.0398887 5.62431C0.0398887 5.27861 0.0398887 4.90631 0.0398887 4.50743C0.0398887 4.08195 0.0531849 3.66976 0.0797775 3.27088C0.132962 2.8454 0.21274 2.44651 0.31911 2.07421C0.42548 1.67533 0.585035 1.31633 0.797774 0.997217C1.03711 0.651516 1.36951 0.398888 1.79499 0.239332C2.22047 0.0797772 2.65925 0 3.11132 0C3.58999 0 4.04206 0.0930741 4.46754 0.279222C4.89302 0.465369 5.23872 0.731293 5.50464 1.077C5.63761 1.28974 5.73068 1.50248 5.78387 1.71521C5.83705 1.92796 5.87694 2.16729 5.90353 2.43321C5.95672 3.31076 5.98331 4.30798 5.98331 5.42487C6.0099 6.54175 6.0099 7.63204 5.98331 8.69574C5.98331 9.73285 5.97001 10.6902 5.94342 11.5677C5.91683 12.4453 5.90353 13.0968 5.90353 13.5223C5.90353 15.1178 5.98331 16.5671 6.14286 17.8702C6.30242 19.1466 6.67471 20.2103 7.25975 21.0613C7.7916 21.8324 8.41652 22.3244 9.13452 22.5371C9.85252 22.7499 10.5705 22.8164 11.2885 22.7366C11.9533 22.6568 12.6181 22.4175 13.2829 22.0186C13.9744 21.5931 14.5195 20.9815 14.9184 20.1837C15.0779 19.8912 15.2109 19.5588 15.3173 19.1865C15.4236 18.8142 15.5034 18.4685 15.5566 18.1494C15.663 17.1389 15.756 15.9688 15.8358 14.6392C15.9156 13.2829 15.9821 11.9001 16.0353 10.4907C16.0885 9.08134 16.115 7.69853 16.115 6.34231C16.115 4.98609 16.1018 3.76284 16.0752 2.67255C16.1283 2.19388 16.2746 1.7551 16.5139 1.35622C16.7267 1.01051 17.0325 0.704701 17.4314 0.438775C17.8303 0.172851 18.3754 0.0398882 19.0668 0.0398882C19.6253 0.0664804 20.0773 0.21274 20.423 0.478666C20.7687 0.717998 21.048 0.983923 21.2607 1.27644C21.5 1.62214 21.6729 2.02103 21.7792 2.4731Z" fill="#1B1B3D"/>
<path d="M38.8581 27.3149C38.9698 27.5179 39.0155 27.6956 38.9952 27.8479C38.985 28.0001 38.9698 28.127 38.9495 28.2286C38.9191 28.3402 38.8429 28.4367 38.7211 28.5179C38.6094 28.5889 38.4825 28.6448 38.3404 28.6854C38.1577 28.7361 38.0054 28.7463 37.8836 28.7158C37.7313 28.6854 37.6044 28.6346 37.5029 28.5636C37.442 28.5128 37.3861 28.4671 37.3354 28.4265C37.2846 28.3758 37.2339 28.3301 37.1831 28.2895C37.1323 28.2387 37.0866 28.193 37.046 28.1524C37.0054 28.1118 36.975 28.0712 36.9547 28.0306C36.9344 27.99 36.9141 27.9646 36.8938 27.9545C36.8836 27.9341 36.8735 27.9189 36.8633 27.9088L34.838 24.985L32.8279 27.9088C32.8178 27.9189 32.8026 27.9341 32.7823 27.9545C32.7721 27.9646 32.7518 27.99 32.7213 28.0306C32.701 28.0712 32.6706 28.1118 32.63 28.1524C32.5995 28.193 32.564 28.2387 32.5234 28.2895C32.4726 28.3301 32.4168 28.3758 32.3559 28.4265C32.295 28.4671 32.2391 28.5128 32.1884 28.5636C32.1275 28.6042 32.0615 28.6346 31.9904 28.6549C31.9295 28.6752 31.8686 28.6955 31.8077 28.7158C31.6757 28.7463 31.5336 28.7361 31.3813 28.6854C31.0666 28.6143 30.8483 28.462 30.7265 28.2286C30.6656 28.1067 30.6402 27.9798 30.6504 27.8479C30.6605 27.7057 30.691 27.5636 30.7417 27.4215C30.8026 27.2794 30.8686 27.1423 30.9397 27.0103C31.0209 26.8784 31.1021 26.7515 31.1833 26.6296C31.2239 26.5789 31.2595 26.5332 31.2899 26.4926C31.3305 26.452 31.3712 26.4063 31.4118 26.3555C31.5437 26.183 31.6706 26.0104 31.7925 25.8378C31.9143 25.6551 32.0462 25.4622 32.1884 25.2591L33.6046 23.2034L31.5184 20.1883L31.3356 19.9294C31.295 19.8685 31.2544 19.8127 31.2138 19.7619C31.1732 19.7111 31.1326 19.6502 31.092 19.5792C31.0514 19.5284 31.0108 19.4726 30.9702 19.4117C30.9295 19.3508 30.894 19.2797 30.8636 19.1985C30.8331 19.1376 30.8026 19.0817 30.7722 19.031C30.7519 18.9701 30.7316 18.899 30.7113 18.8178C30.6808 18.696 30.6707 18.5843 30.6808 18.4828C30.7113 18.3508 30.7773 18.2391 30.8788 18.1478C30.9194 18.097 30.9651 18.0564 31.0158 18.0259C31.0767 17.9955 31.1326 17.965 31.1833 17.9346C31.2849 17.894 31.3762 17.8635 31.4574 17.8432C31.5387 17.8229 31.6249 17.8127 31.7163 17.8127C31.899 17.8229 32.0716 17.8889 32.2341 18.0107C32.4371 18.1427 32.6198 18.3051 32.7823 18.498C32.8533 18.6097 32.9244 18.7163 32.9954 18.8178C33.0665 18.9091 33.1427 19.0056 33.2239 19.1071L33.2391 19.168C33.4929 19.503 33.7213 19.8279 33.9243 20.1426C34.1375 20.4472 34.371 20.772 34.6248 21.1172C34.6654 21.1679 34.701 21.2187 34.7314 21.2695C34.7619 21.3202 34.7974 21.371 34.838 21.4217C34.8786 21.371 34.9142 21.3202 34.9446 21.2695C34.9751 21.2187 35.0106 21.1679 35.0512 21.1172C35.2847 20.772 35.508 20.4472 35.7212 20.1426C35.9446 19.8279 36.1781 19.503 36.4217 19.168L36.4522 19.1071C36.5334 19.0056 36.6095 18.9091 36.6806 18.8178C36.7618 18.7163 36.8379 18.6097 36.909 18.498C37.0714 18.3051 37.2542 18.1427 37.4572 18.0107C37.6095 17.8889 37.7821 17.8229 37.9749 17.8127C38.1374 17.8127 38.3099 17.8534 38.4927 17.9346C38.6145 18.0056 38.7059 18.0767 38.7668 18.1478C38.8886 18.2391 38.9647 18.3508 38.9952 18.4828C39.0054 18.5843 38.9952 18.696 38.9647 18.8178C38.9444 18.899 38.9191 18.9701 38.8886 19.031C38.8683 19.0817 38.8328 19.1376 38.782 19.1985C38.7211 19.3508 38.6551 19.4776 38.584 19.5792C38.5434 19.6502 38.5028 19.7111 38.4622 19.7619C38.4216 19.8127 38.3861 19.8685 38.3556 19.9294L38.1729 20.1883L36.0715 23.2034L37.4876 25.2591L38.3099 26.4164C38.4013 26.5687 38.4927 26.7159 38.584 26.8581C38.6754 27.0002 38.7668 27.1525 38.8581 27.3149Z" fill="#1B1B3D"/>
<path d="M25.7424 14.4341L27.199 13.3066L29.8967 11.193C30.2958 10.8958 30.7022 10.5828 31.1159 10.2541C31.5297 9.92533 31.9556 9.58693 32.3936 9.23886C32.8317 8.8908 33.2211 8.58141 33.5619 8.31069C33.9026 8.03997 34.2956 7.74758 34.7408 7.43352L34.8138 7.37551C34.9452 7.291 35.0717 7.2004 35.1934 7.10371C35.3369 7.00953 35.4756 6.90926 35.6095 6.8029C35.8382 6.64104 36.1287 6.51943 36.4809 6.43808C36.7189 6.38791 36.9665 6.39966 37.2235 6.47334C37.4756 6.59069 37.6741 6.74064 37.8191 6.92317C37.8965 7.02052 37.9581 7.11054 38.0039 7.19322C38.0716 7.2784 38.1284 7.36233 38.1742 7.44501C38.2756 7.62255 38.3137 7.8205 38.2887 8.03887C38.2859 8.16023 38.2417 8.3045 38.1562 8.4717C38.1025 8.55405 38.044 8.63031 37.9807 8.70049C37.9392 8.77317 37.8867 8.8446 37.8234 8.91478C37.7479 8.99463 37.6736 9.06356 37.6006 9.12157C37.5373 9.19175 37.4691 9.25585 37.3961 9.31386C37.3109 9.38154 37.2269 9.4383 37.1443 9.48414C37.0834 9.53248 37.0165 9.58566 36.9435 9.64367L36.6332 9.89022L27.0727 17.3076L26.8902 17.4526C26.8537 17.4816 26.8001 17.5142 26.7296 17.5504C26.681 17.5891 26.6153 17.6313 26.5326 17.6772C26.4524 17.7012 26.3662 17.73 26.2738 17.7637C26.2033 17.7999 26.1219 17.8348 26.0295 17.8685C25.9397 17.8803 25.845 17.8861 25.7455 17.8857C25.6678 17.8879 25.5804 17.8779 25.4834 17.8557C25.3087 17.8357 25.1161 17.7307 24.9056 17.5407C24.5715 17.2701 24.3554 16.9356 24.2572 16.5372C24.2385 16.3139 24.278 16.1137 24.3757 15.9369C24.3832 15.8714 24.4052 15.8241 24.4417 15.7951C24.4564 15.7636 24.465 15.7369 24.4675 15.7151C24.47 15.6932 24.4786 15.6666 24.4932 15.6351C24.5347 15.5624 24.5811 15.4958 24.6322 15.4353C24.6956 15.3651 24.7638 15.301 24.8368 15.243C24.888 15.1825 24.9391 15.122 24.9903 15.0615C25.0512 15.0131 25.1072 14.9587 25.1583 14.8982C25.246 14.8087 25.3495 14.7265 25.4686 14.6516L25.7424 14.4341Z" fill="#1B1B3D"/>
<path d="M30.0416 4.90501C30.0416 6.53842 28.6478 7.86256 26.9284 7.86256C25.209 7.86256 23.8152 6.53842 23.8152 4.90501C23.8152 3.2716 25.3718 2.41444 26.9284 1.94746C29.1076 1.63612 30.0416 3.2716 30.0416 4.90501Z" fill="#B26CE9"/>
</svg>
