<svg width="706" height="573" viewBox="0 0 706 573" fill="none" xmlns="http://www.w3.org/2000/svg">
<path d="M306.134 62.4489C306.134 62.4489 290.763 49.9655 284.934 68.7162C279.105 87.4668 315.283 129.088 315.283 129.088C315.283 129.088 347.488 157.397 371.252 160.034C395.087 162.6 427.829 164.016 454.025 145.929C480.221 127.843 466.457 106.376 442.408 102.608C418.358 98.8405 357.974 133.828 344.096 158.394C330.218 182.96 368.699 190.091 368.699 190.091C368.699 190.091 434.395 192.569 443.104 197.854C451.812 203.139 464.546 205.799 443.937 224.086C423.257 242.444 315.056 302.918 315.056 302.918L119.318 398.719C119.318 398.719 232.703 315.183 325.644 294.269C418.585 273.354 450.285 283.894 464.116 303.876C464.116 303.876 469.224 311.644 470.234 321.258C470.234 321.258 472.226 327.052 471.778 315.739C471.33 304.427 454.297 275.047 402.755 277.772C351.212 280.497 138.23 346.707 72.9602 412.252C72.9602 412.252 61.4557 422.388 78.4301 424.191C78.4301 424.191 350.39 292.944 376.726 274.433C376.726 274.433 518.564 203.423 432.838 192.007C347.113 180.591 332.051 180.269 368.104 142.646C404.158 105.022 476.697 100.202 453.294 134.476C429.89 168.891 339.286 157.839 323.297 120.325C323.297 120.325 316.384 108.468 316.783 96.5879C316.783 74.3768 306.134 62.4489 306.134 62.4489Z" fill="black"/>
<path d="M490.976 194.227C490.976 194.227 514.845 190.287 499.87 178.688C484.905 167.086 466.56 201.263 474.936 209.464C483.312 217.666 499.492 207.587 499.492 207.587C499.492 207.587 501.063 216.309 511.133 208.832C511.133 208.832 512.559 215.824 522.909 206.306C522.909 206.306 524.458 215.996 535.828 204.561C535.828 204.561 538.209 214.607 550.997 199.855C550.997 199.855 573.727 172.851 560.949 177.018C548.172 181.184 560.22 177.59 560.22 177.59C560.22 177.59 537.113 213.269 543.783 194.227C553.283 176.088 546.855 179.925 543.783 186.663C540.711 193.401 528.744 208.283 528.283 202.003C528.283 202.003 540.283 177.018 531.617 184.798C531.617 184.798 524.412 203.491 517.767 204.088C517.767 204.088 515.746 199.407 523.151 188.054C523.151 188.054 522.233 181.548 517.767 188.975C513.301 196.402 513.286 200.763 508.435 204.088C503.584 207.413 514.884 184.905 514.884 184.905C514.884 184.905 512.283 180.088 508.435 186.663C502.962 197.381 503.354 205.208 488.804 208.017C474.254 210.826 488.09 208.304 488.09 208.304C488.09 208.304 470.718 211.976 478.126 197.863C485.534 183.75 496.523 176.5 497.783 184.798C497.783 184.798 497.838 188.716 491.081 191.427C486.283 193.351 490.963 194.221 490.963 194.221L490.976 194.227Z" fill="#1D1D1B"/>
<path d="M552.382 226.72C552.382 226.72 593.937 116.894 599.977 88.153C599.977 88.153 600.755 78.1053 594.274 95.1234C587.793 112.142 579.159 176.615 578.85 197.357C578.54 218.099 574.269 254.019 578.268 264.443C578.268 264.443 575.245 272.282 569.729 266.29C564.213 260.297 540.406 215.549 491.842 210.474C491.842 210.474 521.287 210.603 547.891 235.377L569.913 260.906C569.913 260.906 572.795 269.461 573.568 258.889C574.342 248.318 574.901 169.204 580.698 142.945C586.494 116.686 589.99 96.8142 598.2 81.4913C598.2 81.4913 605.145 74.643 601.371 91.5005C597.598 108.358 582.014 151.47 574.992 170.034C567.971 188.598 553.778 229.561 553.778 229.561C553.778 229.561 551.361 229.428 552.37 226.744L552.382 226.72Z" fill="#1D1D1B"/>
<path d="M696.461 173.87C692.37 176.346 531.184 174.638 527.87 176.346C527.87 176.346 526.277 173.984 530.471 173.628" fill="#1D1D1B"/>
<circle cx="703.783" cy="177.588" r="1.5" fill="black"/>
</svg>
