<svg width="21" height="20" viewBox="0 0 21 20" fill="none" xmlns="http://www.w3.org/2000/svg">
<path d="M2.97241 8.74675V12.9149C2.97241 15.2727 2.97241 16.4517 3.70465 17.1842C4.43688 17.9168 5.61539 17.9167 7.97241 17.9167H12.9724C15.3294 17.9167 16.5079 17.9168 17.2402 17.1842C17.9724 16.4517 17.9724 15.2727 17.9724 12.9149V8.74675" stroke="#606E80" stroke-width="1.5" stroke-linecap="round"/>
<path d="M12.9724 14.161C12.4023 14.667 11.4947 14.9943 10.4724 14.9943C9.45008 14.9943 8.54249 14.667 7.97241 14.161" stroke="#606E80" stroke-width="1.5" stroke-linecap="round"/>
<path d="M8.91991 7.0154C8.68493 7.86407 7.83031 9.328 6.20655 9.54017C4.77285 9.7275 3.68546 9.10167 3.40771 8.84C3.10148 8.62783 2.40355 7.94893 2.23263 7.5246C2.0617 7.10027 2.26111 6.18088 2.40355 5.80605L2.97294 4.1574C3.11194 3.7433 3.43733 2.76388 3.77092 2.43261C4.10452 2.10133 4.77992 2.08692 5.05791 2.08692H10.8958C12.3985 2.10815 15.6842 2.07352 16.3337 2.08692C16.9832 2.10032 17.3735 2.64477 17.4874 2.87816C18.4565 5.22551 18.8334 6.56985 18.8334 7.1427C18.7069 7.7538 18.1834 8.90608 16.3337 9.41292C14.4112 9.93958 13.3212 8.91508 12.9793 8.52175M8.12943 8.52175C8.40005 8.85417 9.249 9.52325 10.4796 9.54017C11.7102 9.55717 12.7728 8.69858 13.1502 8.26718C13.2571 8.13988 13.4878 7.76222 13.7272 7.0154" stroke="#606E80" stroke-width="1.5" stroke-linecap="round" stroke-linejoin="round"/>
</svg>
