<svg width="21" height="20" viewBox="0 0 21 20" fill="none" xmlns="http://www.w3.org/2000/svg">
<path d="M2.58325 5L7.16659 3.33333L11.7499 5L9.66659 6.25V7.5C9.66659 7.5 9.111 7.08333 7.16659 7.08333C5.22214 7.08333 4.66659 7.5 4.66659 7.5V6.25L2.58325 5ZM2.58325 5V8.33333" stroke="#606E80" stroke-width="1.5" stroke-linecap="round" stroke-linejoin="round"/>
<path d="M9.66675 7.08333V7.82407C9.66675 9.25592 8.54746 10.4167 7.16675 10.4167C5.78604 10.4167 4.66675 9.25592 4.66675 7.82407V7.08333" stroke="#606E80" stroke-width="1.5" stroke-linecap="round" stroke-linejoin="round"/>
<path d="M13.2652 9.19117C13.2652 9.19117 13.6692 8.89708 15.0833 8.89708C16.4975 8.89708 16.9015 9.19117 16.9015 9.19117M13.2652 9.19117V8.33333L11.75 7.5L15.0833 6.25L18.4167 7.5L16.9015 8.33333V9.19117M13.2652 9.19117V9.43183C13.2652 10.436 14.0792 11.25 15.0833 11.25C16.0875 11.25 16.9015 10.436 16.9015 9.43183V9.19117" stroke="#606E80" stroke-width="1.5" stroke-linecap="round" stroke-linejoin="round"/>
<path d="M4.15429 13.2717C3.36831 13.7104 1.30751 14.6063 2.56267 15.7274C3.17581 16.275 3.85869 16.6667 4.71723 16.6667H9.61625C10.4748 16.6667 11.1577 16.275 11.7708 15.7274C13.026 14.6063 10.9652 13.7104 10.1792 13.2717C8.33609 12.2427 5.99741 12.2427 4.15429 13.2717Z" stroke="#606E80" stroke-width="1.5" stroke-linecap="round" stroke-linejoin="round"/>
<path d="M13.8333 16.6667H16.9206C17.5645 16.6667 18.0767 16.3533 18.5365 15.9153C19.4779 15.0184 17.9323 14.3017 17.3428 13.9507C16.2801 13.3178 14.9976 13.1716 13.8333 13.5117" stroke="#606E80" stroke-width="1.5" stroke-linecap="round" stroke-linejoin="round"/>
</svg>
