<svg width="21" height="20" viewBox="0 0 21 20" fill="none" xmlns="http://www.w3.org/2000/svg">
<path d="M4.66675 4.85631H6.91675M6.91675 4.85631H8.41675M6.91675 4.85631V4.16666M9.66675 4.85631H8.41675M8.41675 4.85631C8.15301 5.79946 7.60071 6.69101 6.97032 7.47454M6.97032 7.47454C6.44831 8.12334 5.87277 8.69807 5.36317 9.16666M6.97032 7.47454C6.64889 7.09769 6.19889 6.48797 6.07032 6.21211M6.97032 7.47454L7.93461 8.47699" stroke="#606E80" stroke-width="1.5" stroke-linecap="round" stroke-linejoin="round"/>
<path d="M11.75 15.8333L12.4444 14.1667M12.4444 14.1667L13.8333 10.8333L15.2223 14.1667M12.4444 14.1667H15.2223M15.9167 15.8333L15.2223 14.1667" stroke="#606E80" stroke-width="1.5" stroke-linecap="round" stroke-linejoin="round"/>
<path d="M12.1667 8.33332V6.66666C12.1667 4.30963 12.1667 3.13112 11.4345 2.39889C10.7022 1.66666 9.52375 1.66666 7.16675 1.66666C4.80972 1.66666 3.63121 1.66666 2.89898 2.39889C2.16675 3.13112 2.16675 4.30963 2.16675 6.66666C2.16675 9.02366 2.16675 10.2022 2.89898 10.9344C3.63121 11.6667 4.80972 11.6667 7.16675 11.6667H8.83341" stroke="#606E80" stroke-width="1.5" stroke-linecap="round"/>
<path d="M8.83325 13.3333C8.83325 10.9763 8.83325 9.79784 9.5655 9.06559C10.2978 8.33334 11.4763 8.33334 13.8333 8.33334C16.1903 8.33334 17.3688 8.33334 18.101 9.06559C18.8333 9.79784 18.8333 10.9763 18.8333 13.3333C18.8333 15.6903 18.8333 16.8688 18.101 17.6011C17.3688 18.3333 16.1903 18.3333 13.8333 18.3333C11.4763 18.3333 10.2978 18.3333 9.5655 17.6011C8.83325 16.8688 8.83325 15.6903 8.83325 13.3333Z" stroke="#606E80" stroke-width="1.5"/>
<path d="M3.83325 13.75C3.83325 14.9204 3.83325 15.5056 4.11414 15.9259C4.23574 16.1079 4.39199 16.2642 4.57397 16.3858C4.99434 16.6667 5.57954 16.6667 6.74992 16.6667" stroke="#606E80" stroke-width="1.5" stroke-linecap="round" stroke-linejoin="round"/>
<path d="M17.1667 6.25001C17.1667 5.07963 17.1667 4.49444 16.8858 4.07406C16.7642 3.89208 16.6079 3.73583 16.4259 3.61423C16.0056 3.33334 15.4204 3.33334 14.25 3.33334" stroke="#606E80" stroke-width="1.5" stroke-linecap="round" stroke-linejoin="round"/>
</svg>
