<svg width="32" height="32" viewBox="0 0 32 28" fill="none" xmlns="http://www.w3.org/2000/svg">
<path d="M1.35016 8.8952L3.22817 7.30611C3.45931 7.07496 3.90233 7.2098 4.09496 7.30612L8.76302 10.8072L19.1191 1.38315C19.9281 1.15201 20.3229 1.86469 20.4192 2.24992V8.17289L12.7627 13.9514L20.5637 19.8744V2.24992C20.5637 1.44093 19.6969 1.23868 19.2635 1.23868C19.7258 0.891972 20.3229 0.997911 20.5637 1.09422C22.3454 1.91284 26.0244 3.63676 26.4867 3.98347C26.9489 4.33018 27.0645 4.82939 27.0645 5.03566V22.7636C27.1801 23.457 26.7274 23.823 26.4867 23.9193C24.8013 24.7379 21.286 26.4619 20.7082 26.8086C20.1303 27.1553 19.6969 26.953 19.5525 26.8086L8.72321 17.0107L8.5733 17.1296C7.27314 18.0927 4.55724 20.1055 4.09496 20.4522C3.63268 20.7989 3.13187 20.5967 2.93926 20.4522C2.55402 20.1633 1.66799 19.441 1.2057 18.8631C0.743424 18.2853 1.1094 17.7556 1.35017 17.563L4.67281 14.5292L5.32481 13.9359L1.35016 10.3398C0.656738 9.76197 1.06123 9.13597 1.35016 8.8952Z" fill="#121213" stroke="#121213" stroke-width="0.288925"/>
</svg>