<svg width="32" height="32" viewBox="0 0 32 32" fill="none" xmlns="http://www.w3.org/2000/svg">
<path d="M2.66675 20.6668V21.3335C2.66675 22.5907 2.66675 23.2193 3.20395 23.6192C3.74113 24.0191 4.25599 23.8648 5.28568 23.5564C11.3334 21.7449 18.0001 16.6668 18.0001 16.6668L16.1638 20.0565C15.211 21.8153 14.7346 22.6947 15.1194 23.3473C15.5042 24.0001 16.4991 24.0001 18.4889 24.0001H20.2238C20.999 24.0001 21.3866 24.0001 21.7014 23.8097C22.0161 23.6193 22.1981 23.2747 22.5621 22.5856L28.1959 11.9189C29.1205 10.1686 29.5826 9.29344 29.1967 8.64679C28.8109 8.00012 27.8265 8.00012 25.8577 8.00012H23.6187C22.8223 8.00012 22.4241 8.00012 22.1041 8.19925C21.7841 8.39839 21.6061 8.757 21.2498 9.47421L19.3334 13.333L18.9587 10.3356C18.8197 9.22335 18.7502 8.66721 18.3721 8.33345C17.9941 7.99969 17.4335 7.99969 16.3126 7.99969L14.7543 8.00012C13.8462 8.00012 13.3922 8.00012 13.0547 8.22719C12.7172 8.45424 12.5344 8.90365 12.1687 9.80251C10.9149 12.8846 8.81184 16.3892 5.28868 17.5795C3.8742 18.0572 3.16697 18.2961 2.91685 18.6447C2.66675 18.9931 2.66675 19.5511 2.66675 20.6668Z" fill="#121213" stroke="#121213" stroke-width="1.5" stroke-linejoin="round"/>
<path d="M2.66675 10.6664V11.333C2.66675 12.5901 2.66675 13.2186 3.05727 13.6092C3.4478 13.9997 4.07633 13.9997 5.33341 13.9997H6.00008C7.25716 13.9997 7.88569 13.9997 8.27623 13.6092C8.66675 13.2186 8.66675 12.5901 8.66675 11.333V10.6664C8.66675 9.40928 8.66675 8.78073 8.27623 8.39021C7.88569 7.99969 7.25716 7.99969 6.00008 7.99969H5.33341C4.07633 7.99969 3.4478 7.99969 3.05727 8.39021C2.66675 8.78073 2.66675 9.40928 2.66675 10.6664Z" fill="#121213" stroke="#141B34" stroke-width="1.5" stroke-linejoin="round"/>
</svg>
